<?xml version="1.0" encoding="utf-8" standalone="no"?>
<!DOCTYPE svg PUBLIC "-//W3C//DTD SVG 1.1//EN"
  "http://www.w3.org/Graphics/SVG/1.1/DTD/svg11.dtd">
<!-- Created with matplotlib (http://matplotlib.org/) -->
<svg height="345pt" version="1.1" viewBox="0 0 460 345" width="460pt" xmlns="http://www.w3.org/2000/svg" xmlns:xlink="http://www.w3.org/1999/xlink">
 <defs>
  <style type="text/css">
*{stroke-linecap:butt;stroke-linejoin:round;}
  </style>
 </defs>
 <g id="figure_1">
  <g id="patch_1">
   <path d="M 0 345.6 
L 460.8 345.6 
L 460.8 0 
L 0 0 
z
" style="fill:#ffffff;"/>
  </g>
  <g id="axes_1">
   <g id="patch_2">
    <path d="M 57.6 307.584 
L 414.72 307.584 
L 414.72 41.472 
L 57.6 41.472 
z
" style="fill:#ffffff;"/>
   </g>
   <g id="PathCollection_1">
    <defs>
     <path d="M 0 3 
C 0.795609 3 1.55874 2.683901 2.12132 2.12132 
C 2.683901 1.55874 3 0.795609 3 0 
C 3 -0.795609 2.683901 -1.55874 2.12132 -2.12132 
C 1.55874 -2.683901 0.795609 -3 0 -3 
C -0.795609 -3 -1.55874 -2.683901 -2.12132 -2.12132 
C -2.683901 -1.55874 -3 -0.795609 -3 0 
C -3 0.795609 -2.683901 1.55874 -2.12132 2.12132 
C -1.55874 2.683901 -0.795609 3 0 3 
z
" id="md6390d6068" style="stroke:#1f77b4;"/>
    </defs>
    <g clip-path="url(#p791a404777)">
     <use style="fill:#1f77b4;stroke:#1f77b4;" x="77.689826" xlink:href="#md6390d6068" y="55.509859"/>
     <use style="fill:#1f77b4;stroke:#1f77b4;" x="80.240653" xlink:href="#md6390d6068" y="55.509859"/>
     <use style="fill:#1f77b4;stroke:#1f77b4;" x="82.153774" xlink:href="#md6390d6068" y="55.509859"/>
     <use style="fill:#1f77b4;stroke:#1f77b4;" x="84.066895" xlink:href="#md6390d6068" y="55.509859"/>
     <use style="fill:#1f77b4;stroke:#1f77b4;" x="86.617723" xlink:href="#md6390d6068" y="55.510098"/>
     <use style="fill:#1f77b4;stroke:#1f77b4;" x="88.530844" xlink:href="#md6390d6068" y="55.509859"/>
     <use style="fill:#1f77b4;stroke:#1f77b4;" x="90.443964" xlink:href="#md6390d6068" y="55.509859"/>
     <use style="fill:#1f77b4;stroke:#1f77b4;" x="92.994792" xlink:href="#md6390d6068" y="55.509859"/>
     <use style="fill:#1f77b4;stroke:#1f77b4;" x="94.907913" xlink:href="#md6390d6068" y="55.509859"/>
     <use style="fill:#1f77b4;stroke:#1f77b4;" x="96.821034" xlink:href="#md6390d6068" y="55.509859"/>
     <use style="fill:#1f77b4;stroke:#1f77b4;" x="99.371862" xlink:href="#md6390d6068" y="55.510098"/>
     <use style="fill:#1f77b4;stroke:#1f77b4;" x="101.284982" xlink:href="#md6390d6068" y="55.510816"/>
     <use style="fill:#1f77b4;stroke:#1f77b4;" x="103.198103" xlink:href="#md6390d6068" y="55.512012"/>
     <use style="fill:#1f77b4;stroke:#1f77b4;" x="105.748931" xlink:href="#md6390d6068" y="55.512969"/>
     <use style="fill:#1f77b4;stroke:#1f77b4;" x="107.662052" xlink:href="#md6390d6068" y="55.51249"/>
     <use style="fill:#1f77b4;stroke:#1f77b4;" x="109.575173" xlink:href="#md6390d6068" y="55.512012"/>
     <use style="fill:#1f77b4;stroke:#1f77b4;" x="112.126" xlink:href="#md6390d6068" y="55.511534"/>
     <use style="fill:#1f77b4;stroke:#1f77b4;" x="114.039121" xlink:href="#md6390d6068" y="55.512012"/>
     <use style="fill:#1f77b4;stroke:#1f77b4;" x="115.952242" xlink:href="#md6390d6068" y="55.511534"/>
     <use style="fill:#1f77b4;stroke:#1f77b4;" x="118.50307" xlink:href="#md6390d6068" y="55.512012"/>
     <use style="fill:#1f77b4;stroke:#1f77b4;" x="120.416191" xlink:href="#md6390d6068" y="55.511294"/>
     <use style="fill:#1f77b4;stroke:#1f77b4;" x="122.329311" xlink:href="#md6390d6068" y="55.511773"/>
     <use style="fill:#1f77b4;stroke:#1f77b4;" x="124.880139" xlink:href="#md6390d6068" y="55.511534"/>
     <use style="fill:#1f77b4;stroke:#1f77b4;" x="126.79326" xlink:href="#md6390d6068" y="55.513687"/>
     <use style="fill:#1f77b4;stroke:#1f77b4;" x="128.706381" xlink:href="#md6390d6068" y="55.51249"/>
     <use style="fill:#1f77b4;stroke:#1f77b4;" x="131.257209" xlink:href="#md6390d6068" y="55.513447"/>
     <use style="fill:#1f77b4;stroke:#1f77b4;" x="133.170329" xlink:href="#md6390d6068" y="55.513447"/>
     <use style="fill:#1f77b4;stroke:#1f77b4;" x="135.08345" xlink:href="#md6390d6068" y="55.513447"/>
     <use style="fill:#1f77b4;stroke:#1f77b4;" x="137.634278" xlink:href="#md6390d6068" y="55.512969"/>
     <use style="fill:#1f77b4;stroke:#1f77b4;" x="139.547399" xlink:href="#md6390d6068" y="55.513208"/>
     <use style="fill:#1f77b4;stroke:#1f77b4;" x="141.46052" xlink:href="#md6390d6068" y="55.513447"/>
     <use style="fill:#1f77b4;stroke:#1f77b4;" x="144.011347" xlink:href="#md6390d6068" y="55.513687"/>
     <use style="fill:#1f77b4;stroke:#1f77b4;" x="145.924468" xlink:href="#md6390d6068" y="55.513926"/>
     <use style="fill:#1f77b4;stroke:#1f77b4;" x="147.837589" xlink:href="#md6390d6068" y="55.512969"/>
     <use style="fill:#1f77b4;stroke:#1f77b4;" x="150.388417" xlink:href="#md6390d6068" y="55.513926"/>
     <use style="fill:#1f77b4;stroke:#1f77b4;" x="152.301538" xlink:href="#md6390d6068" y="55.51273"/>
     <use style="fill:#1f77b4;stroke:#1f77b4;" x="154.214658" xlink:href="#md6390d6068" y="55.514165"/>
     <use style="fill:#1f77b4;stroke:#1f77b4;" x="156.765486" xlink:href="#md6390d6068" y="55.513447"/>
     <use style="fill:#1f77b4;stroke:#1f77b4;" x="158.678607" xlink:href="#md6390d6068" y="55.513687"/>
     <use style="fill:#1f77b4;stroke:#1f77b4;" x="160.591728" xlink:href="#md6390d6068" y="55.514883"/>
     <use style="fill:#1f77b4;stroke:#1f77b4;" x="163.142556" xlink:href="#md6390d6068" y="55.514165"/>
     <use style="fill:#1f77b4;stroke:#1f77b4;" x="165.055676" xlink:href="#md6390d6068" y="55.514404"/>
     <use style="fill:#1f77b4;stroke:#1f77b4;" x="166.968797" xlink:href="#md6390d6068" y="55.514404"/>
     <use style="fill:#1f77b4;stroke:#1f77b4;" x="169.519625" xlink:href="#md6390d6068" y="55.514883"/>
     <use style="fill:#1f77b4;stroke:#1f77b4;" x="171.432746" xlink:href="#md6390d6068" y="55.515122"/>
     <use style="fill:#1f77b4;stroke:#1f77b4;" x="173.345867" xlink:href="#md6390d6068" y="55.514404"/>
     <use style="fill:#1f77b4;stroke:#1f77b4;" x="175.896694" xlink:href="#md6390d6068" y="55.515361"/>
     <use style="fill:#1f77b4;stroke:#1f77b4;" x="177.809815" xlink:href="#md6390d6068" y="55.514644"/>
     <use style="fill:#1f77b4;stroke:#1f77b4;" x="179.722936" xlink:href="#md6390d6068" y="55.514883"/>
     <use style="fill:#1f77b4;stroke:#1f77b4;" x="182.273764" xlink:href="#md6390d6068" y="55.514883"/>
     <use style="fill:#1f77b4;stroke:#1f77b4;" x="184.186884" xlink:href="#md6390d6068" y="55.515122"/>
     <use style="fill:#1f77b4;stroke:#1f77b4;" x="186.100005" xlink:href="#md6390d6068" y="55.516318"/>
     <use style="fill:#1f77b4;stroke:#1f77b4;" x="188.650833" xlink:href="#md6390d6068" y="55.514883"/>
     <use style="fill:#1f77b4;stroke:#1f77b4;" x="190.563954" xlink:href="#md6390d6068" y="55.515122"/>
     <use style="fill:#1f77b4;stroke:#1f77b4;" x="192.477075" xlink:href="#md6390d6068" y="55.515601"/>
     <use style="fill:#1f77b4;stroke:#1f77b4;" x="195.027902" xlink:href="#md6390d6068" y="55.515601"/>
     <use style="fill:#1f77b4;stroke:#1f77b4;" x="196.941023" xlink:href="#md6390d6068" y="55.51584"/>
     <use style="fill:#1f77b4;stroke:#1f77b4;" x="198.854144" xlink:href="#md6390d6068" y="55.517036"/>
     <use style="fill:#1f77b4;stroke:#1f77b4;" x="201.404972" xlink:href="#md6390d6068" y="55.516079"/>
     <use style="fill:#1f77b4;stroke:#1f77b4;" x="203.318093" xlink:href="#md6390d6068" y="55.514165"/>
     <use style="fill:#1f77b4;stroke:#1f77b4;" x="205.231213" xlink:href="#md6390d6068" y="55.514404"/>
     <use style="fill:#1f77b4;stroke:#1f77b4;" x="207.782041" xlink:href="#md6390d6068" y="55.514165"/>
     <use style="fill:#1f77b4;stroke:#1f77b4;" x="209.695162" xlink:href="#md6390d6068" y="55.516318"/>
     <use style="fill:#1f77b4;stroke:#1f77b4;" x="211.608283" xlink:href="#md6390d6068" y="55.516079"/>
     <use style="fill:#1f77b4;stroke:#1f77b4;" x="214.159111" xlink:href="#md6390d6068" y="55.516797"/>
     <use style="fill:#1f77b4;stroke:#1f77b4;" x="216.072231" xlink:href="#md6390d6068" y="55.513926"/>
     <use style="fill:#1f77b4;stroke:#1f77b4;" x="217.985352" xlink:href="#md6390d6068" y="55.518232"/>
     <use style="fill:#1f77b4;stroke:#1f77b4;" x="220.53618" xlink:href="#md6390d6068" y="55.519189"/>
     <use style="fill:#1f77b4;stroke:#1f77b4;" x="222.449301" xlink:href="#md6390d6068" y="55.518711"/>
     <use style="fill:#1f77b4;stroke:#1f77b4;" x="224.362422" xlink:href="#md6390d6068" y="55.518232"/>
     <use style="fill:#1f77b4;stroke:#1f77b4;" x="226.913249" xlink:href="#md6390d6068" y="55.520625"/>
     <use style="fill:#1f77b4;stroke:#1f77b4;" x="228.82637" xlink:href="#md6390d6068" y="55.519907"/>
     <use style="fill:#1f77b4;stroke:#1f77b4;" x="230.739491" xlink:href="#md6390d6068" y="55.518711"/>
     <use style="fill:#1f77b4;stroke:#1f77b4;" x="233.290319" xlink:href="#md6390d6068" y="55.522299"/>
     <use style="fill:#1f77b4;stroke:#1f77b4;" x="235.20344" xlink:href="#md6390d6068" y="55.532347"/>
     <use style="fill:#1f77b4;stroke:#1f77b4;" x="237.11656" xlink:href="#md6390d6068" y="55.556749"/>
     <use style="fill:#1f77b4;stroke:#1f77b4;" x="239.667388" xlink:href="#md6390d6068" y="55.605793"/>
     <use style="fill:#1f77b4;stroke:#1f77b4;" x="241.580509" xlink:href="#md6390d6068" y="55.697899"/>
     <use style="fill:#1f77b4;stroke:#1f77b4;" x="243.49363" xlink:href="#md6390d6068" y="55.852686"/>
     <use style="fill:#1f77b4;stroke:#1f77b4;" x="246.044458" xlink:href="#md6390d6068" y="56.096946"/>
     <use style="fill:#1f77b4;stroke:#1f77b4;" x="247.957578" xlink:href="#md6390d6068" y="56.449582"/>
     <use style="fill:#1f77b4;stroke:#1f77b4;" x="249.870699" xlink:href="#md6390d6068" y="56.959874"/>
     <use style="fill:#1f77b4;stroke:#1f77b4;" x="252.421527" xlink:href="#md6390d6068" y="57.631891"/>
     <use style="fill:#1f77b4;stroke:#1f77b4;" x="254.334648" xlink:href="#md6390d6068" y="58.512283"/>
     <use style="fill:#1f77b4;stroke:#1f77b4;" x="256.247769" xlink:href="#md6390d6068" y="59.582151"/>
     <use style="fill:#1f77b4;stroke:#1f77b4;" x="258.798596" xlink:href="#md6390d6068" y="60.888385"/>
     <use style="fill:#1f77b4;stroke:#1f77b4;" x="260.711717" xlink:href="#md6390d6068" y="62.411368"/>
     <use style="fill:#1f77b4;stroke:#1f77b4;" x="262.624838" xlink:href="#md6390d6068" y="64.108037"/>
     <use style="fill:#1f77b4;stroke:#1f77b4;" x="265.175666" xlink:href="#md6390d6068" y="65.887482"/>
     <use style="fill:#1f77b4;stroke:#1f77b4;" x="267.088787" xlink:href="#md6390d6068" y="67.817168"/>
     <use style="fill:#1f77b4;stroke:#1f77b4;" x="269.001907" xlink:href="#md6390d6068" y="69.796854"/>
     <use style="fill:#1f77b4;stroke:#1f77b4;" x="271.552735" xlink:href="#md6390d6068" y="71.856206"/>
     <use style="fill:#1f77b4;stroke:#1f77b4;" x="273.465856" xlink:href="#md6390d6068" y="74.000009"/>
     <use style="fill:#1f77b4;stroke:#1f77b4;" x="275.378977" xlink:href="#md6390d6068" y="76.315345"/>
     <use style="fill:#1f77b4;stroke:#1f77b4;" x="277.929804" xlink:href="#md6390d6068" y="78.847429"/>
     <use style="fill:#1f77b4;stroke:#1f77b4;" x="279.842925" xlink:href="#md6390d6068" y="81.479515"/>
     <use style="fill:#1f77b4;stroke:#1f77b4;" x="281.756046" xlink:href="#md6390d6068" y="84.354187"/>
     <use style="fill:#1f77b4;stroke:#1f77b4;" x="284.306874" xlink:href="#md6390d6068" y="87.371683"/>
     <use style="fill:#1f77b4;stroke:#1f77b4;" x="286.219995" xlink:href="#md6390d6068" y="90.427458"/>
     <use style="fill:#1f77b4;stroke:#1f77b4;" x="288.133116" xlink:href="#md6390d6068" y="93.337298"/>
     <use style="fill:#1f77b4;stroke:#1f77b4;" x="290.683943" xlink:href="#md6390d6068" y="96.61628"/>
     <use style="fill:#1f77b4;stroke:#1f77b4;" x="292.597064" xlink:href="#md6390d6068" y="99.490474"/>
     <use style="fill:#1f77b4;stroke:#1f77b4;" x="294.510185" xlink:href="#md6390d6068" y="102.64601"/>
     <use style="fill:#1f77b4;stroke:#1f77b4;" x="297.061013" xlink:href="#md6390d6068" y="105.899872"/>
     <use style="fill:#1f77b4;stroke:#1f77b4;" x="298.974133" xlink:href="#md6390d6068" y="109.164501"/>
     <use style="fill:#1f77b4;stroke:#1f77b4;" x="300.887254" xlink:href="#md6390d6068" y="112.796836"/>
     <use style="fill:#1f77b4;stroke:#1f77b4;" x="303.438082" xlink:href="#md6390d6068" y="116.210748"/>
     <use style="fill:#1f77b4;stroke:#1f77b4;" x="305.351203" xlink:href="#md6390d6068" y="119.584947"/>
     <use style="fill:#1f77b4;stroke:#1f77b4;" x="307.264324" xlink:href="#md6390d6068" y="123.385227"/>
     <use style="fill:#1f77b4;stroke:#1f77b4;" x="309.815151" xlink:href="#md6390d6068" y="126.546027"/>
     <use style="fill:#1f77b4;stroke:#1f77b4;" x="311.728272" xlink:href="#md6390d6068" y="130.372862"/>
     <use style="fill:#1f77b4;stroke:#1f77b4;" x="313.641393" xlink:href="#md6390d6068" y="134.050892"/>
     <use style="fill:#1f77b4;stroke:#1f77b4;" x="316.192221" xlink:href="#md6390d6068" y="138.46003"/>
     <use style="fill:#1f77b4;stroke:#1f77b4;" x="318.105342" xlink:href="#md6390d6068" y="143.226349"/>
     <use style="fill:#1f77b4;stroke:#1f77b4;" x="320.018462" xlink:href="#md6390d6068" y="148.277121"/>
     <use style="fill:#1f77b4;stroke:#1f77b4;" x="322.56929" xlink:href="#md6390d6068" y="154.040101"/>
     <use style="fill:#1f77b4;stroke:#1f77b4;" x="324.482411" xlink:href="#md6390d6068" y="158.759051"/>
     <use style="fill:#1f77b4;stroke:#1f77b4;" x="326.395532" xlink:href="#md6390d6068" y="163.889489"/>
     <use style="fill:#1f77b4;stroke:#1f77b4;" x="328.94636" xlink:href="#md6390d6068" y="167.948384"/>
     <use style="fill:#1f77b4;stroke:#1f77b4;" x="330.85948" xlink:href="#md6390d6068" y="171.813736"/>
     <use style="fill:#1f77b4;stroke:#1f77b4;" x="332.772601" xlink:href="#md6390d6068" y="175.219515"/>
     <use style="fill:#1f77b4;stroke:#1f77b4;" x="335.323429" xlink:href="#md6390d6068" y="178.314763"/>
     <use style="fill:#1f77b4;stroke:#1f77b4;" x="337.23655" xlink:href="#md6390d6068" y="181.628435"/>
     <use style="fill:#1f77b4;stroke:#1f77b4;" x="339.149671" xlink:href="#md6390d6068" y="185.228234"/>
     <use style="fill:#1f77b4;stroke:#1f77b4;" x="341.700498" xlink:href="#md6390d6068" y="189.032103"/>
     <use style="fill:#1f77b4;stroke:#1f77b4;" x="343.613619" xlink:href="#md6390d6068" y="193.339804"/>
     <use style="fill:#1f77b4;stroke:#1f77b4;" x="345.52674" xlink:href="#md6390d6068" y="197.37334"/>
     <use style="fill:#1f77b4;stroke:#1f77b4;" x="348.077568" xlink:href="#md6390d6068" y="201.84468"/>
     <use style="fill:#1f77b4;stroke:#1f77b4;" x="349.990689" xlink:href="#md6390d6068" y="206.613392"/>
     <use style="fill:#1f77b4;stroke:#1f77b4;" x="351.903809" xlink:href="#md6390d6068" y="210.809848"/>
     <use style="fill:#1f77b4;stroke:#1f77b4;" x="354.454637" xlink:href="#md6390d6068" y="215.544349"/>
     <use style="fill:#1f77b4;stroke:#1f77b4;" x="356.367758" xlink:href="#md6390d6068" y="220.219997"/>
     <use style="fill:#1f77b4;stroke:#1f77b4;" x="358.280879" xlink:href="#md6390d6068" y="225.079618"/>
     <use style="fill:#1f77b4;stroke:#1f77b4;" x="360.831707" xlink:href="#md6390d6068" y="229.889478"/>
     <use style="fill:#1f77b4;stroke:#1f77b4;" x="362.744827" xlink:href="#md6390d6068" y="235.095036"/>
     <use style="fill:#1f77b4;stroke:#1f77b4;" x="364.657948" xlink:href="#md6390d6068" y="240.394854"/>
     <use style="fill:#1f77b4;stroke:#1f77b4;" x="367.208776" xlink:href="#md6390d6068" y="245.191078"/>
     <use style="fill:#1f77b4;stroke:#1f77b4;" x="369.121897" xlink:href="#md6390d6068" y="250.230127"/>
     <use style="fill:#1f77b4;stroke:#1f77b4;" x="371.035018" xlink:href="#md6390d6068" y="254.773716"/>
     <use style="fill:#1f77b4;stroke:#1f77b4;" x="373.585845" xlink:href="#md6390d6068" y="258.94601"/>
     <use style="fill:#1f77b4;stroke:#1f77b4;" x="375.498966" xlink:href="#md6390d6068" y="263.71831"/>
     <use style="fill:#1f77b4;stroke:#1f77b4;" x="377.412087" xlink:href="#md6390d6068" y="267.153275"/>
     <use style="fill:#1f77b4;stroke:#1f77b4;" x="379.962915" xlink:href="#md6390d6068" y="271.483704"/>
     <use style="fill:#1f77b4;stroke:#1f77b4;" x="381.876036" xlink:href="#md6390d6068" y="275.122499"/>
     <use style="fill:#1f77b4;stroke:#1f77b4;" x="383.789156" xlink:href="#md6390d6068" y="279.302687"/>
     <use style="fill:#1f77b4;stroke:#1f77b4;" x="386.339984" xlink:href="#md6390d6068" y="283.398186"/>
     <use style="fill:#1f77b4;stroke:#1f77b4;" x="388.253105" xlink:href="#md6390d6068" y="286.93363"/>
     <use style="fill:#1f77b4;stroke:#1f77b4;" x="390.166226" xlink:href="#md6390d6068" y="290.811662"/>
     <use style="fill:#1f77b4;stroke:#1f77b4;" x="392.717053" xlink:href="#md6390d6068" y="293.493987"/>
     <use style="fill:#1f77b4;stroke:#1f77b4;" x="394.630174" xlink:href="#md6390d6068" y="293.546141"/>
    </g>
   </g>
   <g id="matplotlib.axis_1">
    <g id="xtick_1">
     <g id="line2d_1">
      <defs>
       <path d="M 0 0 
L 0 3.5 
" id="maf52d21c8e" style="stroke:#000000;stroke-width:0.8;"/>
      </defs>
      <g>
       <use style="stroke:#000000;stroke-width:0.8;" x="75.776705" xlink:href="#maf52d21c8e" y="307.584"/>
      </g>
     </g>
     <g id="text_1">
      <!-- 0.0 -->
      <defs>
       <path d="M 31.78125 66.40625 
Q 24.171875 66.40625 20.328125 58.90625 
Q 16.5 51.421875 16.5 36.375 
Q 16.5 21.390625 20.328125 13.890625 
Q 24.171875 6.390625 31.78125 6.390625 
Q 39.453125 6.390625 43.28125 13.890625 
Q 47.125 21.390625 47.125 36.375 
Q 47.125 51.421875 43.28125 58.90625 
Q 39.453125 66.40625 31.78125 66.40625 
z
M 31.78125 74.21875 
Q 44.046875 74.21875 50.515625 64.515625 
Q 56.984375 54.828125 56.984375 36.375 
Q 56.984375 17.96875 50.515625 8.265625 
Q 44.046875 -1.421875 31.78125 -1.421875 
Q 19.53125 -1.421875 13.0625 8.265625 
Q 6.59375 17.96875 6.59375 36.375 
Q 6.59375 54.828125 13.0625 64.515625 
Q 19.53125 74.21875 31.78125 74.21875 
z
" id="DejaVuSans-30"/>
       <path d="M 10.6875 12.40625 
L 21 12.40625 
L 21 0 
L 10.6875 0 
z
" id="DejaVuSans-2e"/>
      </defs>
      <g transform="translate(67.825142 322.182437)scale(0.1 -0.1)">
       <use xlink:href="#DejaVuSans-30"/>
       <use x="63.623047" xlink:href="#DejaVuSans-2e"/>
       <use x="95.410156" xlink:href="#DejaVuSans-30"/>
      </g>
     </g>
    </g>
    <g id="xtick_2">
     <g id="line2d_2">
      <g>
       <use style="stroke:#000000;stroke-width:0.8;" x="139.547399" xlink:href="#maf52d21c8e" y="307.584"/>
      </g>
     </g>
     <g id="text_2">
      <!-- 0.1 -->
      <defs>
       <path d="M 12.40625 8.296875 
L 28.515625 8.296875 
L 28.515625 63.921875 
L 10.984375 60.40625 
L 10.984375 69.390625 
L 28.421875 72.90625 
L 38.28125 72.90625 
L 38.28125 8.296875 
L 54.390625 8.296875 
L 54.390625 0 
L 12.40625 0 
z
" id="DejaVuSans-31"/>
      </defs>
      <g transform="translate(131.595836 322.182437)scale(0.1 -0.1)">
       <use xlink:href="#DejaVuSans-30"/>
       <use x="63.623047" xlink:href="#DejaVuSans-2e"/>
       <use x="95.410156" xlink:href="#DejaVuSans-31"/>
      </g>
     </g>
    </g>
    <g id="xtick_3">
     <g id="line2d_3">
      <g>
       <use style="stroke:#000000;stroke-width:0.8;" x="203.318093" xlink:href="#maf52d21c8e" y="307.584"/>
      </g>
     </g>
     <g id="text_3">
      <!-- 0.2 -->
      <defs>
       <path d="M 19.1875 8.296875 
L 53.609375 8.296875 
L 53.609375 0 
L 7.328125 0 
L 7.328125 8.296875 
Q 12.9375 14.109375 22.625 23.890625 
Q 32.328125 33.6875 34.8125 36.53125 
Q 39.546875 41.84375 41.421875 45.53125 
Q 43.3125 49.21875 43.3125 52.78125 
Q 43.3125 58.59375 39.234375 62.25 
Q 35.15625 65.921875 28.609375 65.921875 
Q 23.96875 65.921875 18.8125 64.3125 
Q 13.671875 62.703125 7.8125 59.421875 
L 7.8125 69.390625 
Q 13.765625 71.78125 18.9375 73 
Q 24.125 74.21875 28.421875 74.21875 
Q 39.75 74.21875 46.484375 68.546875 
Q 53.21875 62.890625 53.21875 53.421875 
Q 53.21875 48.921875 51.53125 44.890625 
Q 49.859375 40.875 45.40625 35.40625 
Q 44.1875 33.984375 37.640625 27.21875 
Q 31.109375 20.453125 19.1875 8.296875 
z
" id="DejaVuSans-32"/>
      </defs>
      <g transform="translate(195.36653 322.182437)scale(0.1 -0.1)">
       <use xlink:href="#DejaVuSans-30"/>
       <use x="63.623047" xlink:href="#DejaVuSans-2e"/>
       <use x="95.410156" xlink:href="#DejaVuSans-32"/>
      </g>
     </g>
    </g>
    <g id="xtick_4">
     <g id="line2d_4">
      <g>
       <use style="stroke:#000000;stroke-width:0.8;" x="267.088787" xlink:href="#maf52d21c8e" y="307.584"/>
      </g>
     </g>
     <g id="text_4">
      <!-- 0.3 -->
      <defs>
       <path d="M 40.578125 39.3125 
Q 47.65625 37.796875 51.625 33 
Q 55.609375 28.21875 55.609375 21.1875 
Q 55.609375 10.40625 48.1875 4.484375 
Q 40.765625 -1.421875 27.09375 -1.421875 
Q 22.515625 -1.421875 17.65625 -0.515625 
Q 12.796875 0.390625 7.625 2.203125 
L 7.625 11.71875 
Q 11.71875 9.328125 16.59375 8.109375 
Q 21.484375 6.890625 26.8125 6.890625 
Q 36.078125 6.890625 40.9375 10.546875 
Q 45.796875 14.203125 45.796875 21.1875 
Q 45.796875 27.640625 41.28125 31.265625 
Q 36.765625 34.90625 28.71875 34.90625 
L 20.21875 34.90625 
L 20.21875 43.015625 
L 29.109375 43.015625 
Q 36.375 43.015625 40.234375 45.921875 
Q 44.09375 48.828125 44.09375 54.296875 
Q 44.09375 59.90625 40.109375 62.90625 
Q 36.140625 65.921875 28.71875 65.921875 
Q 24.65625 65.921875 20.015625 65.03125 
Q 15.375 64.15625 9.8125 62.3125 
L 9.8125 71.09375 
Q 15.4375 72.65625 20.34375 73.4375 
Q 25.25 74.21875 29.59375 74.21875 
Q 40.828125 74.21875 47.359375 69.109375 
Q 53.90625 64.015625 53.90625 55.328125 
Q 53.90625 49.265625 50.4375 45.09375 
Q 46.96875 40.921875 40.578125 39.3125 
z
" id="DejaVuSans-33"/>
      </defs>
      <g transform="translate(259.137224 322.182437)scale(0.1 -0.1)">
       <use xlink:href="#DejaVuSans-30"/>
       <use x="63.623047" xlink:href="#DejaVuSans-2e"/>
       <use x="95.410156" xlink:href="#DejaVuSans-33"/>
      </g>
     </g>
    </g>
    <g id="xtick_5">
     <g id="line2d_5">
      <g>
       <use style="stroke:#000000;stroke-width:0.8;" x="330.85948" xlink:href="#maf52d21c8e" y="307.584"/>
      </g>
     </g>
     <g id="text_5">
      <!-- 0.4 -->
      <defs>
       <path d="M 37.796875 64.3125 
L 12.890625 25.390625 
L 37.796875 25.390625 
z
M 35.203125 72.90625 
L 47.609375 72.90625 
L 47.609375 25.390625 
L 58.015625 25.390625 
L 58.015625 17.1875 
L 47.609375 17.1875 
L 47.609375 0 
L 37.796875 0 
L 37.796875 17.1875 
L 4.890625 17.1875 
L 4.890625 26.703125 
z
" id="DejaVuSans-34"/>
      </defs>
      <g transform="translate(322.907918 322.182437)scale(0.1 -0.1)">
       <use xlink:href="#DejaVuSans-30"/>
       <use x="63.623047" xlink:href="#DejaVuSans-2e"/>
       <use x="95.410156" xlink:href="#DejaVuSans-34"/>
      </g>
     </g>
    </g>
    <g id="xtick_6">
     <g id="line2d_6">
      <g>
       <use style="stroke:#000000;stroke-width:0.8;" x="394.630174" xlink:href="#maf52d21c8e" y="307.584"/>
      </g>
     </g>
     <g id="text_6">
      <!-- 0.5 -->
      <defs>
       <path d="M 10.796875 72.90625 
L 49.515625 72.90625 
L 49.515625 64.59375 
L 19.828125 64.59375 
L 19.828125 46.734375 
Q 21.96875 47.46875 24.109375 47.828125 
Q 26.265625 48.1875 28.421875 48.1875 
Q 40.625 48.1875 47.75 41.5 
Q 54.890625 34.8125 54.890625 23.390625 
Q 54.890625 11.625 47.5625 5.09375 
Q 40.234375 -1.421875 26.90625 -1.421875 
Q 22.3125 -1.421875 17.546875 -0.640625 
Q 12.796875 0.140625 7.71875 1.703125 
L 7.71875 11.625 
Q 12.109375 9.234375 16.796875 8.0625 
Q 21.484375 6.890625 26.703125 6.890625 
Q 35.15625 6.890625 40.078125 11.328125 
Q 45.015625 15.765625 45.015625 23.390625 
Q 45.015625 31 40.078125 35.4375 
Q 35.15625 39.890625 26.703125 39.890625 
Q 22.75 39.890625 18.8125 39.015625 
Q 14.890625 38.140625 10.796875 36.28125 
z
" id="DejaVuSans-35"/>
      </defs>
      <g transform="translate(386.678612 322.182437)scale(0.1 -0.1)">
       <use xlink:href="#DejaVuSans-30"/>
       <use x="63.623047" xlink:href="#DejaVuSans-2e"/>
       <use x="95.410156" xlink:href="#DejaVuSans-35"/>
      </g>
     </g>
    </g>
   </g>
   <g id="matplotlib.axis_2">
    <g id="ytick_1">
     <g id="line2d_7">
      <defs>
       <path d="M 0 0 
L -3.5 0 
" id="m568261b344" style="stroke:#000000;stroke-width:0.8;"/>
      </defs>
      <g>
       <use style="stroke:#000000;stroke-width:0.8;" x="57.6" xlink:href="#m568261b344" y="294.746872"/>
      </g>
     </g>
     <g id="text_7">
      <!-- 0.0 -->
      <g transform="translate(34.696875 298.54609)scale(0.1 -0.1)">
       <use xlink:href="#DejaVuSans-30"/>
       <use x="63.623047" xlink:href="#DejaVuSans-2e"/>
       <use x="95.410156" xlink:href="#DejaVuSans-30"/>
      </g>
     </g>
    </g>
    <g id="ytick_2">
     <g id="line2d_8">
      <g>
       <use style="stroke:#000000;stroke-width:0.8;" x="57.6" xlink:href="#m568261b344" y="246.899469"/>
      </g>
     </g>
     <g id="text_8">
      <!-- 0.2 -->
      <g transform="translate(34.696875 250.698688)scale(0.1 -0.1)">
       <use xlink:href="#DejaVuSans-30"/>
       <use x="63.623047" xlink:href="#DejaVuSans-2e"/>
       <use x="95.410156" xlink:href="#DejaVuSans-32"/>
      </g>
     </g>
    </g>
    <g id="ytick_3">
     <g id="line2d_9">
      <g>
       <use style="stroke:#000000;stroke-width:0.8;" x="57.6" xlink:href="#m568261b344" y="199.052067"/>
      </g>
     </g>
     <g id="text_9">
      <!-- 0.4 -->
      <g transform="translate(34.696875 202.851285)scale(0.1 -0.1)">
       <use xlink:href="#DejaVuSans-30"/>
       <use x="63.623047" xlink:href="#DejaVuSans-2e"/>
       <use x="95.410156" xlink:href="#DejaVuSans-34"/>
      </g>
     </g>
    </g>
    <g id="ytick_4">
     <g id="line2d_10">
      <g>
       <use style="stroke:#000000;stroke-width:0.8;" x="57.6" xlink:href="#m568261b344" y="151.204664"/>
      </g>
     </g>
     <g id="text_10">
      <!-- 0.6 -->
      <defs>
       <path d="M 33.015625 40.375 
Q 26.375 40.375 22.484375 35.828125 
Q 18.609375 31.296875 18.609375 23.390625 
Q 18.609375 15.53125 22.484375 10.953125 
Q 26.375 6.390625 33.015625 6.390625 
Q 39.65625 6.390625 43.53125 10.953125 
Q 47.40625 15.53125 47.40625 23.390625 
Q 47.40625 31.296875 43.53125 35.828125 
Q 39.65625 40.375 33.015625 40.375 
z
M 52.59375 71.296875 
L 52.59375 62.3125 
Q 48.875 64.0625 45.09375 64.984375 
Q 41.3125 65.921875 37.59375 65.921875 
Q 27.828125 65.921875 22.671875 59.328125 
Q 17.53125 52.734375 16.796875 39.40625 
Q 19.671875 43.65625 24.015625 45.921875 
Q 28.375 48.1875 33.59375 48.1875 
Q 44.578125 48.1875 50.953125 41.515625 
Q 57.328125 34.859375 57.328125 23.390625 
Q 57.328125 12.15625 50.6875 5.359375 
Q 44.046875 -1.421875 33.015625 -1.421875 
Q 20.359375 -1.421875 13.671875 8.265625 
Q 6.984375 17.96875 6.984375 36.375 
Q 6.984375 53.65625 15.1875 63.9375 
Q 23.390625 74.21875 37.203125 74.21875 
Q 40.921875 74.21875 44.703125 73.484375 
Q 48.484375 72.75 52.59375 71.296875 
z
" id="DejaVuSans-36"/>
      </defs>
      <g transform="translate(34.696875 155.003883)scale(0.1 -0.1)">
       <use xlink:href="#DejaVuSans-30"/>
       <use x="63.623047" xlink:href="#DejaVuSans-2e"/>
       <use x="95.410156" xlink:href="#DejaVuSans-36"/>
      </g>
     </g>
    </g>
    <g id="ytick_5">
     <g id="line2d_11">
      <g>
       <use style="stroke:#000000;stroke-width:0.8;" x="57.6" xlink:href="#m568261b344" y="103.357261"/>
      </g>
     </g>
     <g id="text_11">
      <!-- 0.8 -->
      <defs>
       <path d="M 31.78125 34.625 
Q 24.75 34.625 20.71875 30.859375 
Q 16.703125 27.09375 16.703125 20.515625 
Q 16.703125 13.921875 20.71875 10.15625 
Q 24.75 6.390625 31.78125 6.390625 
Q 38.8125 6.390625 42.859375 10.171875 
Q 46.921875 13.96875 46.921875 20.515625 
Q 46.921875 27.09375 42.890625 30.859375 
Q 38.875 34.625 31.78125 34.625 
z
M 21.921875 38.8125 
Q 15.578125 40.375 12.03125 44.71875 
Q 8.5 49.078125 8.5 55.328125 
Q 8.5 64.0625 14.71875 69.140625 
Q 20.953125 74.21875 31.78125 74.21875 
Q 42.671875 74.21875 48.875 69.140625 
Q 55.078125 64.0625 55.078125 55.328125 
Q 55.078125 49.078125 51.53125 44.71875 
Q 48 40.375 41.703125 38.8125 
Q 48.828125 37.15625 52.796875 32.3125 
Q 56.78125 27.484375 56.78125 20.515625 
Q 56.78125 9.90625 50.3125 4.234375 
Q 43.84375 -1.421875 31.78125 -1.421875 
Q 19.734375 -1.421875 13.25 4.234375 
Q 6.78125 9.90625 6.78125 20.515625 
Q 6.78125 27.484375 10.78125 32.3125 
Q 14.796875 37.15625 21.921875 38.8125 
z
M 18.3125 54.390625 
Q 18.3125 48.734375 21.84375 45.5625 
Q 25.390625 42.390625 31.78125 42.390625 
Q 38.140625 42.390625 41.71875 45.5625 
Q 45.3125 48.734375 45.3125 54.390625 
Q 45.3125 60.0625 41.71875 63.234375 
Q 38.140625 66.40625 31.78125 66.40625 
Q 25.390625 66.40625 21.84375 63.234375 
Q 18.3125 60.0625 18.3125 54.390625 
z
" id="DejaVuSans-38"/>
      </defs>
      <g transform="translate(34.696875 107.15648)scale(0.1 -0.1)">
       <use xlink:href="#DejaVuSans-30"/>
       <use x="63.623047" xlink:href="#DejaVuSans-2e"/>
       <use x="95.410156" xlink:href="#DejaVuSans-38"/>
      </g>
     </g>
    </g>
    <g id="ytick_6">
     <g id="line2d_12">
      <g>
       <use style="stroke:#000000;stroke-width:0.8;" x="57.6" xlink:href="#m568261b344" y="55.509859"/>
      </g>
     </g>
     <g id="text_12">
      <!-- 1.0 -->
      <g transform="translate(34.696875 59.309078)scale(0.1 -0.1)">
       <use xlink:href="#DejaVuSans-31"/>
       <use x="63.623047" xlink:href="#DejaVuSans-2e"/>
       <use x="95.410156" xlink:href="#DejaVuSans-30"/>
      </g>
     </g>
    </g>
   </g>
   <g id="patch_3">
    <path d="M 57.6 307.584 
L 57.6 41.472 
" style="fill:none;stroke:#000000;stroke-linecap:square;stroke-linejoin:miter;stroke-width:0.8;"/>
   </g>
   <g id="patch_4">
    <path d="M 414.72 307.584 
L 414.72 41.472 
" style="fill:none;stroke:#000000;stroke-linecap:square;stroke-linejoin:miter;stroke-width:0.8;"/>
   </g>
   <g id="patch_5">
    <path d="M 57.6 307.584 
L 414.72 307.584 
" style="fill:none;stroke:#000000;stroke-linecap:square;stroke-linejoin:miter;stroke-width:0.8;"/>
   </g>
   <g id="patch_6">
    <path d="M 57.6 41.472 
L 414.72 41.472 
" style="fill:none;stroke:#000000;stroke-linecap:square;stroke-linejoin:miter;stroke-width:0.8;"/>
   </g>
   <g id="text_13">
    <!-- FSC -->
    <defs>
     <path d="M 9.8125 72.90625 
L 51.703125 72.90625 
L 51.703125 64.59375 
L 19.671875 64.59375 
L 19.671875 43.109375 
L 48.578125 43.109375 
L 48.578125 34.8125 
L 19.671875 34.8125 
L 19.671875 0 
L 9.8125 0 
z
" id="DejaVuSans-46"/>
     <path d="M 53.515625 70.515625 
L 53.515625 60.890625 
Q 47.90625 63.578125 42.921875 64.890625 
Q 37.9375 66.21875 33.296875 66.21875 
Q 25.25 66.21875 20.875 63.09375 
Q 16.5 59.96875 16.5 54.203125 
Q 16.5 49.359375 19.40625 46.890625 
Q 22.3125 44.4375 30.421875 42.921875 
L 36.375 41.703125 
Q 47.40625 39.59375 52.65625 34.296875 
Q 57.90625 29 57.90625 20.125 
Q 57.90625 9.515625 50.796875 4.046875 
Q 43.703125 -1.421875 29.984375 -1.421875 
Q 24.8125 -1.421875 18.96875 -0.25 
Q 13.140625 0.921875 6.890625 3.21875 
L 6.890625 13.375 
Q 12.890625 10.015625 18.65625 8.296875 
Q 24.421875 6.59375 29.984375 6.59375 
Q 38.421875 6.59375 43.015625 9.90625 
Q 47.609375 13.234375 47.609375 19.390625 
Q 47.609375 24.75 44.3125 27.78125 
Q 41.015625 30.8125 33.5 32.328125 
L 27.484375 33.5 
Q 16.453125 35.6875 11.515625 40.375 
Q 6.59375 45.0625 6.59375 53.421875 
Q 6.59375 63.09375 13.40625 68.65625 
Q 20.21875 74.21875 32.171875 74.21875 
Q 37.3125 74.21875 42.625 73.28125 
Q 47.953125 72.359375 53.515625 70.515625 
z
" id="DejaVuSans-53"/>
     <path d="M 64.40625 67.28125 
L 64.40625 56.890625 
Q 59.421875 61.53125 53.78125 63.8125 
Q 48.140625 66.109375 41.796875 66.109375 
Q 29.296875 66.109375 22.65625 58.46875 
Q 16.015625 50.828125 16.015625 36.375 
Q 16.015625 21.96875 22.65625 14.328125 
Q 29.296875 6.6875 41.796875 6.6875 
Q 48.140625 6.6875 53.78125 8.984375 
Q 59.421875 11.28125 64.40625 15.921875 
L 64.40625 5.609375 
Q 59.234375 2.09375 53.4375 0.328125 
Q 47.65625 -1.421875 41.21875 -1.421875 
Q 24.65625 -1.421875 15.125 8.703125 
Q 5.609375 18.84375 5.609375 36.375 
Q 5.609375 53.953125 15.125 64.078125 
Q 24.65625 74.21875 41.21875 74.21875 
Q 47.75 74.21875 53.53125 72.484375 
Q 59.328125 70.75 64.40625 67.28125 
z
" id="DejaVuSans-43"/>
    </defs>
    <g transform="translate(224.71125 35.472)scale(0.12 -0.12)">
     <use xlink:href="#DejaVuSans-46"/>
     <use x="57.503906" xlink:href="#DejaVuSans-53"/>
     <use x="120.980469" xlink:href="#DejaVuSans-43"/>
    </g>
   </g>
  </g>
 </g>
 <defs>
  <clipPath id="p791a404777">
   <rect height="266.112" width="357.12" x="57.6" y="41.472"/>
  </clipPath>
 </defs>
</svg>
